<?xml version="1.0" encoding="UTF-8" standalone="no"?>
<!DOCTYPE svg PUBLIC "-//W3C//DTD SVG 1.1//EN"
 "http://www.w3.org/Graphics/SVG/1.1/DTD/svg11.dtd">
<!-- Generated by graphviz version 2.38.0 (20140413.2041)
 -->
<!-- Title: project Pages: 1 -->
<svg width="134pt" height="188pt"
 viewBox="0.00 0.00 134.00 188.00" xmlns="http://www.w3.org/2000/svg" xmlns:xlink="http://www.w3.org/1999/xlink">
<g id="graph0" class="graph" transform="scale(1 1) rotate(0) translate(4 184)">
<title>project</title>
<!-- B -->
<g id="node1" class="node"><title>B</title>
<text text-anchor="middle" x="27" y="-85.8" font-family="Helvetica,sans-Serif" font-size="14.00" fill="#b58900">B</text>
</g>
<!-- C -->
<g id="node2" class="node"><title>C</title>
<text text-anchor="middle" x="99" y="-85.8" font-family="Helvetica,sans-Serif" font-size="14.00" fill="#b58900">C</text>
</g>
<!-- B&#45;&gt;C -->
<g id="edge3" class="edge"><title>B&#45;&gt;C</title>
<path fill="none" stroke="#2aa198" d="M54.2812,-90C56.7377,-90 59.1942,-90 61.6507,-90"/>
<polygon fill="#2aa198" stroke="#2aa198" points="61.7495,-93.5001 71.7495,-90 61.7495,-86.5001 61.7495,-93.5001"/>
</g>
<!-- D -->
<g id="node4" class="node"><title>D</title>
<text text-anchor="middle" x="99" y="-13.8" font-family="Helvetica,sans-Serif" font-size="14.00" fill="#b58900">D</text>
</g>
<!-- C&#45;&gt;D -->
<g id="edge4" class="edge"><title>C&#45;&gt;D</title>
<path fill="none" stroke="#2aa198" d="M99,-71.6966C99,-63.9827 99,-54.7125 99,-46.1124"/>
<polygon fill="#2aa198" stroke="#2aa198" points="102.5,-46.1043 99,-36.1043 95.5001,-46.1044 102.5,-46.1043"/>
</g>
<!-- A -->
<g id="node3" class="node"><title>A</title>
<text text-anchor="middle" x="63" y="-157.8" font-family="Helvetica,sans-Serif" font-size="14.00" fill="#b58900">A</text>
</g>
<!-- A&#45;&gt;B -->
<g id="edge1" class="edge"><title>A&#45;&gt;B</title>
<path fill="none" stroke="#2aa198" d="M54.1011,-143.697C50.0032,-135.728 45.0512,-126.1 40.5073,-117.264"/>
<polygon fill="#2aa198" stroke="#2aa198" points="43.4826,-115.396 35.7965,-108.104 37.2575,-118.598 43.4826,-115.396"/>
</g>
<!-- A&#45;&gt;C -->
<g id="edge2" class="edge"><title>A&#45;&gt;C</title>
<path fill="none" stroke="#2aa198" d="M71.8989,-143.697C75.9968,-135.728 80.9488,-126.1 85.4927,-117.264"/>
<polygon fill="#2aa198" stroke="#2aa198" points="88.7425,-118.598 90.2035,-108.104 82.5174,-115.396 88.7425,-118.598"/>
</g>
</g>
</svg>
